<svg xmlns="http://www.w3.org/2000/svg" xmlns:svgjs="http://svgjs.com/svgjs" xmlns:xlink="http://www.w3.org/1999/xlink" width="288" height="288"><svg xmlns="http://www.w3.org/2000/svg" width="288" height="288" enable-background="new 0 0 512.002 512.002" viewBox="0 0 512.002 512.002"><path fill="#bc92f6" d="M304.002,285c-16,0-16-9.5-16-24h-64c0,14.5,0,24-16,24l48,32L304.002,285z" class="color64555a svgShape"/><path fill="#f7f8f9" d="M302.668 220c0 0 9.333 12.8 9.333 28.8s-12.056 19.2-17.5 19.2 0 0-38.5 0-33.056 0-38.5 0-17.5-3.2-17.5-19.2 9.333-28.8 9.333-28.8M304.002 288h-16c-16 0-20 24-32 24s-16-24-32-24h-16c-4.418 0-8 3.582-8 8v44c0 50.811 25.072 92 56 92s56-41.189 56-92v-44C312.002 291.582 308.42 288 304.002 288z" class="color7d5a55 svgShape"/><path fill="#f7f8f9" d="M256.002 224c15.333 0 47.538-.805 64-16 4.333-4-6.633-14.653 0-32 4.333-11.333 0-16 0-16s-16.411 5.897-40 0c-9.333-2.333-16-8-24-8M256.002 224c-15.333 0-47.538-.805-64-16-4.333-4 6.633-14.653 0-32-4.333-11.333 0-16 0-16s16.411 5.897 40 0c9.333-2.333 16-8 24-8" class="color8c645a svgShape"/><path fill="#bc92f6" d="M240.002 152c-14-10-33.372-29.698-32-64 1.5-37.5 32-80 32-80-8.5 8.5-83.5 70.5-48 152M270.52 152c14-10 33.373-29.698 32-64-1.5-37.5-32-80-32-80 8.5 8.5 83.5 70.5 48 152" class="color64555a svgShape"/><path fill="#9c5cf2" d="M447.921,326.869c-0.625-4.375-4.679-7.414-9.051-6.789l-48.082,6.869c-2.181,0.31-6.313-0.815-8.036-2.194l-27.506-22.004
	c-4.338-3.471-11.675-7.104-17.065-8.452l-19.625-4.906c-2.414-5.295-7.623-9.039-13.735-9.352c-0.27-0.027-0.543-0.041-0.819-0.041
	c-6.136,0-7.596-0.01-7.916-9.145c7.904-2.518,15.916-9.417,15.916-22.855h16c12.772,0,24.422-9.869,26.521-22.467l10.739-64.436
	c1.059-6.353,7.052-15.156,12.575-18.469l26.28-15.769c3.789-2.273,5.017-7.188,2.744-10.977c-2.273-3.788-7.187-5.017-10.976-2.744
	l-26.28,15.769c-9.627,5.776-18.279,18.484-20.125,29.559l-10.739,64.436c-0.808,4.847-5.826,9.098-10.739,9.098H309.04
	c-0.959-2.642-2.033-4.967-3.035-6.886c7.229-2.622,14.006-6.236,19.423-11.235c5.377-4.964,3.524-11.499,2.172-16.271
	c-1.456-5.136-3.106-10.957-0.126-18.751c3.961-10.358,2.379-17.229,0.56-21.001c12.668-32.883,10.338-66.349-6.977-99.559
	C306.818,30.984,286.212,11.743,278.455,4.5c-0.991-0.925-1.767-1.646-2.279-2.158c-2.944-2.943-7.654-3.134-10.83-0.442
	c-3.176,2.694-3.753,7.375-1.329,10.761c0.291,0.406,29.124,41.047,30.508,75.658c1.18,29.492-14.932,47.368-28.656,57.171
	c-0.108,0.077-0.206,0.163-0.309,0.245c-2.954-1.017-6.084-1.735-9.56-1.735c-3.887,0-7.346,0.89-10.604,2.102
	c-0.235-0.215-0.481-0.422-0.747-0.611c-13.724-9.803-29.836-27.679-28.656-57.171c1.384-34.611,30.217-75.252,30.506-75.655
	c2.429-3.384,1.854-8.066-1.322-10.763s-7.889-2.503-10.834,0.441c-0.512,0.513-1.288,1.233-2.279,2.158
	c-7.757,7.243-28.362,26.484-42.602,53.797c-17.639,33.832-19.735,67.93-6.257,101.405c-1.399,4.002-2.063,10.304,1.321,19.154
	c2.98,7.794,1.33,13.615-0.125,18.751c-1.353,4.771-3.205,11.307,2.172,16.271c5.417,4.999,12.193,8.613,19.423,11.235
	c-1.001,1.919-2.076,4.244-3.035,6.886h-18.962c-4.913,0-9.932-4.251-10.739-9.098l-10.739-64.436
	c-1.846-11.074-10.498-23.782-20.125-29.559l-26.28-15.769c-3.79-2.272-8.703-1.046-10.976,2.744
	c-2.273,3.789-1.045,8.703,2.744,10.977l26.281,15.769c5.522,3.313,11.516,12.116,12.575,18.469l10.739,64.436
	C159.579,238.131,171.228,248,184,248h16c0,13.438,8.012,20.338,15.916,22.855c-0.32,9.135-1.78,9.145-7.916,9.145
	c-0.276,0-0.55,0.014-0.819,0.041c-6.112,0.313-11.322,4.057-13.735,9.352l-19.625,4.906c-5.39,1.348-12.727,4.981-17.065,8.452
	l-27.506,22.004c-1.723,1.379-5.852,2.513-8.038,2.193l-48.081-6.868c-4.372-0.626-8.426,2.414-9.051,6.789
	c-0.625,4.373,2.414,8.426,6.788,9.051l48.079,6.867c0.978,0.141,1.998,0.208,3.045,0.208c5.993,0,12.836-2.214,17.251-5.746
	l27.506-22.004c2.556-2.045,7.776-4.631,10.951-5.425l14.298-3.574v26.977l-9.424,1.571c-4.254,0.709-8.037,3.148-10.379,6.693
	s-3.103,7.981-2.087,12.172c6.577,27.128,13.516,57.649,13.884,62.345c-0.423,5.997-9.91,56.043-15.846,86.464
	c-0.846,4.337,1.983,8.538,6.32,9.384c0.518,0.102,1.033,0.15,1.541,0.15c3.75-0.001,7.098-2.65,7.843-6.47
	c4.855-24.884,16.148-83.419,16.148-89.532c0-6.21-9.812-47.415-14.198-65.523l6.476-1.079c1.315,22.498,7.336,43.462,17.291,59.816
	C221.655,429.066,238.145,440,256.002,440s34.347-10.934,46.432-30.786c9.955-16.354,15.976-37.318,17.291-59.816l6.476,1.079
	c-4.386,18.107-14.198,59.313-14.198,65.523c0,6.113,11.293,64.648,16.148,89.532c0.745,3.819,4.093,6.47,7.843,6.47
	c0.508,0,1.024-0.049,1.541-0.15c4.336-0.846,7.166-5.047,6.32-9.384c-5.936-30.421-15.422-80.467-15.846-86.464
	c0.368-4.694,7.307-35.216,13.884-62.345c1.016-4.19,0.255-8.627-2.087-12.172s-6.125-5.984-10.379-6.694l-9.424-1.57v-26.977
	l14.298,3.574c3.176,0.794,8.396,3.38,10.952,5.425l27.506,22.004c4.416,3.533,11.258,5.746,17.251,5.746
	c1.046,0,2.067-0.067,3.044-0.207l48.081-6.868C445.507,335.295,448.546,331.242,447.921,326.869z M310.514,87.681
	c-0.277-6.932-1.45-13.971-3.204-20.884c17.665,34.58,14.061,64.613,5.204,86.809c-5.792,1.046-16.443,1.998-29.695-1.158
	C297.528,139.533,311.762,118.877,310.514,87.681z M203.212,66.797c-1.754,6.913-2.927,13.952-3.204,20.884
	c-1.257,31.419,13.189,52.145,28.01,65.04c-14.033,3.127-25.008,1.661-30.137,0.567C189.118,131.124,185.632,101.213,203.212,66.797
	z M199.313,203.718c0.154-0.578,0.332-1.207,0.485-1.746c1.704-6.011,4.555-16.07-0.323-28.829c-0.513-1.341-0.85-2.501-1.064-3.494
	c7.908,1.234,20.437,1.888,35.532-1.888c4.629-1.156,8.556-2.942,12.021-4.518c3.828-1.74,7.134-3.243,10.039-3.243
	c2.905,0,6.211,1.503,10.039,3.243c3.465,1.575,7.392,3.361,12.021,4.518c15.098,3.776,27.625,3.123,35.532,1.888
	c-0.214,0.993-0.552,2.153-1.064,3.494c-4.878,12.759-2.026,22.818-0.323,28.829c0.153,0.539,0.331,1.168,0.484,1.746
	C302.22,211.87,283.173,216,256.002,216S209.784,211.87,199.313,203.718z M223.002,256c-3.193,0-7-1.388-7-8
	c0-8.867,4.637-16.547,6.011-18.628c14.116,2.624,27.522,2.628,33.989,2.628c6.467,0,19.874-0.004,33.99-2.628
	c1.377,2.08,6.01,9.745,6.01,18.628c0,6.612-3.807,8-7,8H223.002z M281.354,280.969c-8.59,2.595-14.04,9.91-18.233,15.546
	c-2.083,2.8-5.569,7.485-7.119,7.485s-5.036-4.686-7.119-7.485c-4.193-5.636-9.643-12.951-18.233-15.546
	c0.751-2.771,1.087-5.762,1.233-8.969h48.237C280.267,275.207,280.603,278.197,281.354,280.969z M304.002,340
	c0,40.774-17.631,75.859-40,82.752V344c0-4.418-3.582-8-8-8s-8,3.582-8,8v78.752c-22.369-6.893-40-41.978-40-82.752v-44h16
	c4.249,0,7.384,3.803,12.044,10.065c4.619,6.208,10.368,13.935,19.956,13.935c9.588,0,15.337-7.727,19.956-13.935
	c4.66-6.263,7.795-10.065,12.044-10.065h16V340z" class="color000 svgShape"/></svg></svg>